<svg xmlns="http://www.w3.org/2000/svg" xmlns:xlink="http://www.w3.org/1999/xlink" width="1080" zoomAndPan="magnify" viewBox="0 0 810 809.999993" height="1080" preserveAspectRatio="xMidYMid meet" version="1.0"><defs><clipPath id="e302861be7"><path d="M 26.039062 26.039062 L 783.960938 26.039062 L 783.960938 405 L 26.039062 405 Z M 26.039062 26.039062 " clip-rule="nonzero"/></clipPath><clipPath id="1de5174bca"><path d="M 26.039062 405 C 26.039062 195.707031 195.707031 26.039062 405 26.039062 C 614.292969 26.039062 783.960938 195.707031 783.960938 405 L 730.90625 405 C 730.90625 225.007812 584.992188 79.09375 405 79.09375 C 225.007812 79.09375 79.09375 225.007812 79.09375 405 Z M 26.039062 405 " clip-rule="nonzero"/></clipPath><clipPath id="5fac8e9c17"><path d="M 26.039062 26 L 566.355469 26 L 566.355469 405 L 26.039062 405 Z M 26.039062 26 " clip-rule="nonzero"/></clipPath><clipPath id="16a8ec9ca7"><path d="M 26.039062 405 C 26.039062 275.265625 92.40625 154.546875 201.941406 85.035156 C 311.480469 15.519531 448.964844 6.867188 566.351562 62.105469 L 543.765625 110.113281 C 442.8125 62.605469 324.574219 70.046875 230.371094 129.828125 C 136.167969 189.613281 79.09375 293.429688 79.09375 405 Z M 26.039062 405 " clip-rule="nonzero"/></clipPath><clipPath id="e1d163dcbe"><path d="M 26.03125 404.988281 L 783.949219 404.988281 L 783.949219 783.949219 L 26.03125 783.949219 Z M 26.03125 404.988281 " clip-rule="nonzero"/></clipPath><clipPath id="7e102c7dea"><path d="M 783.949219 404.988281 C 783.949219 614.28125 614.285156 783.949219 404.988281 783.949219 C 195.695312 783.949219 26.03125 614.28125 26.03125 404.988281 L 79.082031 404.988281 C 79.082031 584.980469 224.996094 730.894531 404.988281 730.894531 C 584.980469 730.894531 730.894531 584.980469 730.894531 404.988281 Z M 783.949219 404.988281 " clip-rule="nonzero"/></clipPath><clipPath id="3bdb698fca"><path d="M 628 404.988281 L 783.949219 404.988281 L 783.949219 681.808594 L 628 681.808594 Z M 628 404.988281 " clip-rule="nonzero"/></clipPath><clipPath id="c8481b6069"><path d="M 783.949219 404.988281 C 783.949219 509.628906 740.683594 609.609375 664.40625 681.238281 L 628.085938 642.5625 C 693.6875 580.960938 730.894531 494.976562 730.894531 404.988281 Z M 783.949219 404.988281 " clip-rule="nonzero"/></clipPath></defs><rect x="-81" width="972" fill="#ffffff" y="-80.999999" height="971.999992" fill-opacity="1"/><rect x="-81" width="972" fill="#ffffff" y="-80.999999" height="971.999992" fill-opacity="1"/><g clip-path="url(#e302861be7)"><g clip-path="url(#1de5174bca)"><path fill="#c8007b" d="M 26.039062 26.039062 L 783.960938 26.039062 L 783.960938 405 L 26.039062 405 Z M 26.039062 26.039062 " fill-opacity="1" fill-rule="nonzero"/></g></g><g clip-path="url(#5fac8e9c17)"><g clip-path="url(#16a8ec9ca7)"><path fill="#ffde59" d="M 26.039062 26.039062 L 783.960938 26.039062 L 783.960938 405 L 26.039062 405 Z M 26.039062 26.039062 " fill-opacity="1" fill-rule="nonzero"/></g></g><g clip-path="url(#e1d163dcbe)"><g clip-path="url(#7e102c7dea)"><path fill="#000000" d="M 783.949219 783.949219 L 26.03125 783.949219 L 26.03125 404.988281 L 783.949219 404.988281 Z M 783.949219 783.949219 " fill-opacity="1" fill-rule="nonzero"/></g></g><g clip-path="url(#3bdb698fca)"><g clip-path="url(#c8481b6069)"><path fill="#c8007b" d="M 783.949219 783.949219 L 26.03125 783.949219 L 26.03125 404.988281 L 783.949219 404.988281 Z M 783.949219 783.949219 " fill-opacity="1" fill-rule="nonzero"/></g></g></svg>